<svg xmlns="http://www.w3.org/2000/svg" width="1920" height="1080" viewBox="0 0 1920 1080" fill="none">
  <defs>
    <linearGradient id="a" x1="135" y1="80" x2="1820" y2="1020" gradientUnits="userSpaceOnUse"><stop stop-color="#17072D"/><stop offset=".52" stop-color="#0E051C"/><stop offset="1" stop-color="#05020B"/></linearGradient>
    <radialGradient id="b" cx="0" cy="0" r="1" gradientTransform="translate(972 408) rotate(91) scale(460 770)" gradientUnits="userSpaceOnUse"><stop stop-color="#7C28B7" stop-opacity=".78"/><stop offset=".46" stop-color="#4C177D" stop-opacity=".31"/><stop offset="1" stop-color="#22083C" stop-opacity="0"/></radialGradient>
    <filter id="c" x="-80%" y="-80%" width="260%" height="260%"><feGaussianBlur stdDeviation="45"/></filter>
    <filter id="d" x="-20%" y="-20%" width="140%" height="140%"><feGaussianBlur stdDeviation="9"/></filter>
  </defs>
  <rect width="1920" height="1080" fill="url(#a)"/>
  <ellipse cx="972" cy="408" rx="770" ry="460" fill="url(#b)"/>
  <circle cx="390" cy="260" r="220" fill="#8B2CC5" fill-opacity=".16" filter="url(#c)"/><circle cx="1500" cy="720" r="280" fill="#6D28D9" fill-opacity=".13" filter="url(#c)"/>
  <g stroke="#C084FC" stroke-opacity=".20"><path d="M-40 798C310 612 542 922 829 780s470-290 1131-52"/><path d="M-30 826C330 646 552 950 845 808s485-296 1112-75"/></g>
  <g fill="#E9D5FF" filter="url(#d)"><circle cx="210" cy="173" r="3"/><circle cx="526" cy="113" r="2"/><circle cx="730" cy="782" r="3"/><circle cx="1298" cy="180" r="3"/><circle cx="1640" cy="334" r="2"/><circle cx="1712" cy="896" r="3"/><circle cx="338" cy="921" r="2"/></g>
</svg>
